<?xml version="1.0" encoding="UTF-8"?>
<!-- Generated by Pixelmator Pro 3.5.3 -->
<svg width="178" height="674" viewBox="0 0 178 674" xmlns="http://www.w3.org/2000/svg">
    <path id="Path" fill="#f5f6f8" stroke="none" visibility="hidden" d="M 0 1 C 408.209991 1 816.419983 1 1237 1 C 1237 423.070007 1237 845.140015 1237 1280 C 828.789978 1280 420.579987 1280 0 1280 C 0 857.929993 0 435.859985 0 1 Z"/>
    <path id="path1" fill="#909497" stroke="none" d="M 86 0 C 91.320007 4.830017 93.690002 12.02002 96.059998 18.650024 C 99.570007 27.840027 104.139999 36.5 108.619995 45.25 C 110.330002 48.580017 112.029999 51.919983 113.729996 55.27002 C 114.110001 56.01001 114.5 56.75 114.889999 57.52002 C 117.089996 61.859985 118.75 66.130005 120.220001 70.76001 C 121.559998 74.589966 123.410004 78.140015 125.270004 81.72998 C 125.679993 82.530029 126.080002 83.330017 126.5 84.160034 C 128.220001 87.539978 129.940002 90.910034 131.669998 94.280029 C 139.910004 110.400024 139.910004 110.400024 142.410004 117.280029 C 146.51001 128.52002 152.320007 139.109985 157.649994 149.809998 C 159.130005 152.780029 160.600006 155.76001 162.070007 158.72998 C 162.519989 159.630005 162.970001 160.530029 163.429993 161.450012 C 165.799988 166.23999 167.790009 170.950012 169.339996 176.070007 C 170.380005 179.109985 172.059998 181.73999 173.690002 184.5 C 181.619995 199.640015 175.919983 219.140015 173.75 235.369995 C 173.049988 240.599976 172.399994 245.820007 171.809998 251.059998 C 171.73999 251.75 171.660004 252.429993 171.580017 253.140015 C 170.940002 259.130005 170.559998 265.140015 170.25 271.160034 C 170 274 170 274 169 276 C 168.790009 278.650024 168.630005 281.280029 168.5 283.940002 C 168.130005 291.599976 168.130005 291.599976 167 295 C 166.799988 297.650024 166.630005 300.280029 166.5 302.940002 C 166.130005 310.47998 166.130005 310.47998 165.519989 312.869995 C 164.869995 315.540039 164.649994 318.160034 164.419983 320.900024 C 164.25 322.719971 164.25 322.719971 164.089996 324.570007 C 164.029999 325.22998 163.980011 325.880005 163.919983 326.549988 C 162.160004 346.570007 159.839996 366.530029 157.519989 386.48999 C 156.959991 391.290039 156.399994 396.089966 155.850006 400.890015 C 153.940002 417.440002 152.01001 434 150.049988 450.549988 C 149.910004 451.75 149.76001 452.950012 149.619995 454.179993 C 148.98999 459.5 148.350006 464.820007 147.709991 470.140015 C 146.700012 478.589966 145.75 487 145.230011 495.5 C 145 498 145 498 144.519989 499.890015 C 143.76001 502.959961 143.540009 506.030029 143.25 509.179993 C 143.179993 509.869995 143.119995 510.559998 143.049988 511.27002 C 142.910004 512.72998 142.779999 514.190002 142.640015 515.640015 C 142.440002 517.859985 142.230011 520.080017 142.019989 522.289978 C 141.890015 523.710022 141.75 525.130005 141.619995 526.549988 C 141.5 527.840027 141.380005 529.119995 141.26001 530.440002 C 140.399994 537.080017 140.399994 537.080017 143.269989 542.650024 C 144.299988 543.570007 145.330017 544.47998 146.380005 545.380005 C 159.220001 557.309998 167.26001 572.559998 168.160004 590.090027 C 168.950012 613.050049 166.669983 631.01001 150.910004 648.52002 C 136.570007 663.76001 119.199997 672.409912 98.220001 673.130005 C 77.570007 673.540039 61.479996 668.130005 45 656 C 44.279999 655.48999 43.559998 654.969971 42.820007 654.439941 C 29.610001 644.159912 22.149994 626.949951 19.440002 610.849976 C 17.050003 589.880005 21.959991 570.22998 35.059998 553.440002 C 36.850006 551.309998 38.529999 549.349976 40.770004 547.690002 C 43.889999 545.179993 45.820007 543.340027 46.369995 539.27002 C 46.190002 535.869995 45.770004 532.590027 45.25 529.219971 C 45.089996 527.950012 44.919998 526.679993 44.75 525.369995 C 44.309998 521.940002 43.809998 518.52002 43.309998 515.090027 C 42.910004 512.359985 42.529999 509.619995 42.149994 506.880005 C 40.959991 498.170044 39.660004 489.47998 38.350006 480.780029 C 37.75 476.76001 37.149994 472.73999 36.559998 468.719971 C 35.679993 462.809998 34.809998 456.910034 33.929993 451 C 31.589996 435.280029 29.270004 419.559998 26.979996 403.839966 C 26.25 398.890015 25.529999 393.940002 24.790009 389 C 24.339996 385.910034 23.880005 382.820007 23.440002 379.72998 C 23.229996 378.309998 23.020004 376.900024 22.809998 375.47998 C 21.639999 367.690002 20.830002 359.98999 20.410004 352.119995 C 19.959991 344.170044 18.75 336.339966 17.559998 328.469971 C 17.309998 326.799988 17.070007 325.140015 16.820007 323.47998 C 16.300003 319.959961 15.779999 316.450012 15.25 312.940002 C 14.429993 307.450012 13.619995 301.950012 12.809998 296.459961 C 11.720001 289.099976 10.630005 281.75 9.540009 274.390015 C 7.600006 261.320007 5.660004 248.25 3.769997 235.169983 C 3.43 232.830017 3.080002 230.48999 2.730003 228.160034 C -1.769997 197.839966 -1.769997 197.839966 6.119995 181.619995 C 6.699997 180.400024 7.279999 179.179993 7.850006 177.950012 C 8.709991 176.119995 9.570007 174.289978 10.440002 172.460022 C 14.429993 164.049988 18.080002 155.51001 21.339996 146.799988 C 24.639999 138.089966 28.639999 129.690002 32.559998 121.25 C 33.699997 118.789978 34.839996 116.330017 35.979996 113.869995 C 36.679993 112.359985 37.380005 110.839966 38.080002 109.330017 C 39.059998 107.219971 40.029999 105.109985 41 103 C 41.339996 102.27002 41.679993 101.539978 42.029999 100.789978 C 43.720001 97.080017 45.240005 93.419983 46.479996 89.539978 C 48.059998 84.630005 50.139999 80 52.309998 75.320007 C 52.720001 74.429993 53.119995 73.530029 53.540009 72.609985 C 54.839996 69.780029 56.139999 66.950012 57.440002 64.119995 C 64.209991 49.630005 64.209991 49.630005 69.990005 34.719971 C 72.100006 29.02002 74.710007 23.51001 77.229996 17.97998 C 78.199997 15.849976 79.169998 13.710022 80.130005 11.570007 C 80.75 10.210022 81.360001 8.849976 81.979996 7.48999 C 82.270004 6.849976 82.559998 6.219971 82.850006 5.559998 C 84.880005 1.119995 84.880005 1.119995 86 0 Z"/>
    <path id="path2" fill="#f5f6f8" stroke="none" d="M 90 67 C 93 68 93 68 94.770004 71.48999 C 95.460007 73.090027 96.139999 74.700012 96.809998 76.309998 C 101.130005 86.280029 105.919998 95.97998 110.860001 105.650024 C 113.880005 111.590027 116.729996 117.570007 119.360001 123.690002 C 123.660004 133.690002 128.5 143.410034 133.320007 153.169983 C 137.450012 161.549988 141.48999 169.900024 144.98999 178.580017 C 146.25 181.589966 147.769989 184.429993 149.309998 187.309998 C 154.600006 198.849976 151.850006 212.469971 150.359985 224.72998 C 150.059998 227.27002 149.76001 229.809998 149.470001 232.349976 C 148.839996 237.76001 148.200012 243.160034 147.559998 248.559998 C 146.720001 255.669983 145.890015 262.77002 145.070007 269.880005 C 144.970001 270.72998 144.869995 271.580017 144.769989 272.460022 C 143.429993 284.070007 142.429993 295.619995 142.160004 307.320007 C 142 311 142 311 141 314 C 128.270004 314.070007 115.550003 314.119995 102.820007 314.160034 C 96.910004 314.169983 91.009995 314.190002 85.100006 314.22998 C 79.399994 314.26001 73.699997 314.280029 68 314.280029 C 65.820007 314.289978 63.639999 314.299988 61.470001 314.320007 C 58.419998 314.339966 55.380005 314.339966 52.339996 314.339966 C 51.429993 314.349976 50.529999 314.359985 49.589996 314.369995 C 48.759995 314.369995 47.940002 314.369995 47.080002 314.359985 C 46 314.359985 46 314.359985 44.899994 314.369995 C 42.419998 313.890015 41.540009 312.969971 40 311 C 39.449997 308.400024 39.449997 308.400024 39.199997 305.22998 C 39.089996 304.030029 38.990005 302.839966 38.880005 301.599976 C 38.779999 300.289978 38.679993 298.97998 38.570007 297.630005 C 38.330002 294.799988 38.080002 291.960022 37.830002 289.130005 C 37.759995 288.380005 37.699997 287.640015 37.630005 286.880005 C 36.949997 279.23999 36.100006 271.619995 35.220001 264 C 34.959991 261.669983 34.690002 259.339966 34.429993 257.01001 C 33.709991 250.690002 32.990005 244.359985 32.25 238.039978 C 31.800003 234.089966 31.350006 230.140015 30.899994 226.179993 C 30.729996 224.710022 30.559998 223.22998 30.389999 221.76001 C 27.410004 196.320007 27.410004 196.320007 31.919998 187.98999 C 32.220001 187.419983 32.520004 186.839966 32.830002 186.23999 C 33.779999 184.440002 34.759995 182.660034 35.75 180.880005 C 37.029999 178.5 38.290009 176.119995 39.550003 173.73999 C 40.149994 172.589966 40.759995 171.440002 41.389999 170.26001 C 42.800003 167.410034 43.929993 164.650024 44.949997 161.640015 C 47.290009 154.789978 50.639999 148.48999 53.940002 142.070007 C 59.479996 131.26001 64.850006 120.429993 69.619995 109.25 C 75.770004 94.849976 82.889999 80.940002 90 67 Z"/>
    <path id="path3" fill="#f5f6f8" stroke="none" d="M 126.8125 558.625 C 137.602509 569.11499 143.942505 581.375 144.292511 596.434998 C 144.402496 609.415039 143.402496 622.155029 134.002502 632.005005 C 133.352509 632.744995 132.702515 633.494995 132.032501 634.265015 C 123.992493 643.045044 113.162506 648.785034 101.142502 649.334961 C 82.742493 649.655029 70.0625 645.505005 56.192505 632.875 C 47.502502 623.834961 43.8125 612.714966 43.752502 600.434998 C 43.732498 599.484985 43.712494 598.535034 43.692505 597.554993 C 43.612503 584.61499 48.372498 572.174988 57.272491 562.61499 C 75.782501 545.315002 106.392502 542.575012 126.8125 558.625 Z"/>
    <path id="path4" fill="#f5f6f8" stroke="none" d="M 115.828491 340.968872 C 119.248489 340.948853 122.668488 340.928894 126.088486 340.918884 C 127.088486 340.908875 128.098495 340.898865 129.128494 340.888855 C 130.028488 340.888855 130.928497 340.888855 131.85849 340.888855 C 132.638489 340.888855 133.428497 340.878845 134.228485 340.878845 C 135.998505 340.998901 135.998505 340.998901 136.998505 341.998901 C 137.818481 353.818848 136.228485 365.698853 135.058502 377.438843 C 134.84848 379.638855 134.638489 381.848877 134.418488 384.048889 C 134.058502 387.808838 133.688477 391.558838 133.328491 395.318848 C 132.078491 408.078857 130.868484 420.848877 129.668488 433.618896 C 129.558487 434.688843 129.458496 435.758911 129.35849 436.868896 C 128.948486 441.228882 128.528488 445.598877 128.118484 449.958862 C 127.10849 460.678833 126.088486 471.408875 125.068497 482.128906 C 124.708496 485.938843 124.348495 489.75885 123.988495 493.568848 C 123.658493 497.048889 123.328491 500.51886 122.998489 503.998901 C 90.328491 505.168884 90.328491 505.168884 77.248489 505.128906 C 75.478485 505.128906 75.478485 505.128906 73.668488 505.138855 C 65.258484 505.128906 65.258484 505.128906 62.998489 503.998901 C 62.478485 501.708862 62.478485 501.708862 62.068497 498.478882 C 61.908493 497.198853 61.738495 495.918884 61.568497 494.598877 C 61.478485 493.878906 61.388489 493.148865 61.298492 492.398865 C 60.978485 489.808838 60.638489 487.218872 60.308487 484.638855 C 59.478485 478.208862 58.658493 471.76886 57.848495 465.338867 C 57.548492 462.938843 57.238495 460.52887 56.938492 458.128906 C 56.298492 453.108887 55.668488 448.078857 55.028488 443.058838 C 54.228485 436.698853 53.428497 430.348877 52.6185 423.988892 C 51.988495 419.02887 51.35849 414.068848 50.738495 409.098877 C 50.438492 406.76886 50.148499 404.428833 49.84848 402.088867 C 48.228485 389.328857 46.688492 376.568848 45.298492 363.77887 C 45.168488 362.608887 45.038483 361.428833 44.898499 360.218872 C 43.658493 348.658875 43.658493 348.658875 43.998489 343.998901 C 46.698486 341.298889 48.128494 341.728882 51.908493 341.678894 C 53.768494 341.648865 53.768494 341.648865 55.678497 341.618896 C 57.048492 341.608887 58.418488 341.598877 59.788483 341.588867 C 61.208496 341.568848 62.628494 341.548889 64.048492 341.52887 C 67.808487 341.478882 71.568497 341.438843 75.338486 341.398865 C 79.068497 341.358887 82.798492 341.308899 86.528488 341.25885 C 96.298492 341.128845 106.058487 341.048889 115.828491 340.968872 Z"/>
</svg>
