<?xml version="1.0" encoding="UTF-8"?>
<!-- Generated by Pixelmator Pro 3.5.3 -->
<svg width="191" height="941" viewBox="0 0 191 941" xmlns="http://www.w3.org/2000/svg">
    <path id="path1" fill="#909497" stroke="none" d="M 98.381889 0.102539 C 105.112312 6.281616 108.819885 18.202759 112.684021 26.428345 C 113.427505 27.987915 114.17099 29.547668 114.914474 31.1073 C 124.13945 50.528809 124.13945 50.528809 126.154655 57.065491 C 127.944824 62.708191 130.625305 67.864014 133.295929 73.119263 C 134.342682 75.235291 135.399216 77.341309 136.445892 79.457336 C 136.964401 80.49054 137.473114 81.513672 138.001358 82.576721 C 140.026352 86.669617 142.002457 90.78241 143.929596 94.914978 C 144.232849 95.550781 144.536118 96.186584 144.849167 96.842285 C 146.32634 100.021179 147.549164 103.160461 148.566528 106.508301 C 150.23938 111.664124 152.508942 116.422607 154.905685 121.270569 C 155.355652 122.18457 155.795883 123.09845 156.25563 124.042236 C 157.664322 126.933105 159.082809 129.833862 160.501297 132.724792 C 162.369797 136.53949 164.238251 140.354248 166.096909 144.178955 C 166.732803 145.470398 166.732803 145.470398 167.388214 146.791687 C 169.638199 151.421021 171.46759 155.990723 173.003464 160.918152 C 174.118637 164.256042 175.625198 167.375427 177.170792 170.524536 C 177.493637 171.190125 177.806686 171.855774 178.139328 172.54126 C 179.146896 174.62738 180.15448 176.713623 181.162109 178.799805 C 182.18927 180.895935 183.206696 183.001953 184.214264 185.108032 C 184.850159 186.419373 185.476257 187.720764 186.112091 189.012268 C 193.263168 203.794373 188.61644 223.970825 187.286011 239.825867 C 187.119736 241.802795 186.953384 243.779663 186.79689 245.746704 C 184.605606 272.271118 182.267548 298.785645 179.900177 325.290161 C 179.792526 326.551819 179.67514 327.813538 179.557755 329.114868 C 179.049103 334.827087 178.54039 340.529358 178.012146 346.241516 C 177.20018 355.092896 176.397995 363.9245 176.094742 372.825562 C 175.791473 381.190186 175.791473 381.190186 174.68605 384.557922 C 174.480591 387.309753 174.324097 390.051575 174.196915 392.813293 C 173.834961 400.691162 173.834961 400.691162 173.238235 404.217834 C 172.436066 409.224609 172.240402 414.271301 171.937134 419.32782 C 171.761063 422.019958 171.594711 424.702271 171.418701 427.394409 C 171.369736 428.139465 171.320831 428.884521 171.271927 429.659424 C 170.616455 439.683044 169.902344 449.706665 169.178452 459.730408 C 169.021942 461.905945 168.865387 464.081573 168.718689 466.247223 C 167.525192 483.056 166.096909 499.844849 164.610001 516.623779 C 163.21109 532.528564 161.841507 548.433289 160.48172 564.3479 C 160.31543 566.374512 160.139343 568.401123 159.973053 570.427673 C 159.024124 581.484497 158.085022 592.541321 157.145874 603.588196 C 156.382813 612.558838 155.619797 621.529419 154.85672 630.490112 C 154.690445 632.486938 154.524155 634.483765 154.348068 636.470581 C 152.283905 660.799561 152.283905 660.799561 151.217636 672.47229 C 151.149155 673.247131 151.080658 674.022034 151.012177 674.82666 C 150.699127 678.194458 150.395874 681.552185 150.07309 684.909973 C 149.241531 694.019653 148.752411 703.109497 148.478516 712.248962 C 148.36113 715.378296 147.920914 718.259155 147.294815 721.328918 C 147.138306 723.921753 147.020874 726.494751 146.923065 729.087524 C 146.531738 738.018433 145.749146 746.899658 144.907852 755.790771 C 144.78067 757.161743 144.653503 758.542603 144.516525 759.923462 C 144.330658 761.979858 144.135056 764.026245 143.939392 766.082642 C 143.33287 772.460449 142.765472 778.838257 142.217651 785.216064 C 142.139374 786.139893 142.061142 787.063782 141.973083 788.017517 C 141.757889 790.620239 141.581757 793.223022 141.425262 795.835754 C 141.366562 796.789429 141.29808 797.743103 141.23938 798.726563 C 141.063309 803.167236 140.985031 805.948792 143.107834 809.902588 C 143.861115 810.717224 144.624176 811.521912 145.396988 812.346436 C 146.208954 813.260376 147.011139 814.174377 147.842636 815.108215 C 148.63501 815.962524 149.417618 816.816895 150.229584 817.691101 C 165.598038 835.413818 169.26651 855.232605 167.838242 878.289978 C 167.290405 882.502136 166.37085 886.237427 164.903458 890.211121 C 164.570892 891.19458 164.238251 892.168091 163.895828 893.181396 C 161.098022 900.721619 157.136078 906.791321 152.186096 913.059875 C 151.657867 913.765137 151.119766 914.470459 150.571945 915.19574 C 140.27092 928.100342 124.198143 937.299438 107.9786 939.574341 C 84.940628 941.551208 65.893906 936.802734 47.796124 921.960938 C 33.523365 909.523193 24.396198 893.479492 22.07773 874.316284 C 20.786423 853.911377 26.783152 833.446777 39.686382 817.691101 C 41.320057 816.200928 42.973316 814.730713 44.636368 813.280273 C 47.189606 810.786743 48.392906 809.445679 48.91135 805.839539 C 48.852657 804.210327 48.852657 804.210327 48.803757 802.541382 C 48.764648 801.299561 48.735271 800.0578 48.696163 798.776306 C 48.343945 791.991211 47.893986 785.225952 47.355953 778.450806 C 47.218983 776.791809 47.091805 775.132751 46.964626 773.463806 C 45.057011 749.184509 42.924416 724.915161 40.830929 700.645752 C 40.361382 695.22168 39.891838 689.807556 39.422234 684.383423 C 38.854885 677.677856 38.277687 670.982178 37.700489 664.276489 C 37.583103 662.945313 37.465717 661.624084 37.348331 660.292847 C 36.066814 645.381592 34.765713 630.480225 33.396187 615.578857 C 33.171146 613.115112 32.946167 610.641541 32.721188 608.167908 C 32.300541 603.608032 31.879898 599.048218 31.449463 594.488403 C 30.412512 583.272705 29.610332 572.086731 29.248381 560.831177 C 29.091825 556.271362 28.71035 551.979858 27.947281 547.479614 C 27.800518 544.638428 27.683132 541.807129 27.595121 538.965942 C 26.95923 523.478455 25.462526 508.060486 24.102732 492.622681 C 23.711405 488.162231 23.320137 483.691803 22.92881 479.231293 C 22.185324 470.72757 21.441839 462.223846 20.698353 453.720154 C 19.866856 444.30249 19.045153 434.884857 18.223389 425.467163 C 17.82233 420.83783 17.411419 416.208435 17.010359 411.579102 C 16.932081 410.665161 16.853863 409.75116 16.765795 408.817383 C 16.609299 406.969604 16.442951 405.131714 16.286457 403.293884 C 16.041893 400.542114 15.80706 397.790344 15.562495 395.038513 C 15.083158 389.594604 14.613614 384.160522 14.134276 378.716553 C 14.055999 377.832397 13.977722 376.948242 13.899504 376.04425 C 12.931038 364.957703 11.95278 353.880981 10.964728 342.80426 C 10.485392 337.360291 10.006055 331.916382 9.526658 326.472412 C 9.203815 322.906006 8.890825 319.3396 8.567984 315.773193 C 7.325576 301.954651 6.181031 288.165894 5.750595 274.287781 C 5.721278 273.423523 5.701694 272.559204 5.672317 271.675049 C 5.643001 270.55249 5.643001 270.55249 5.603892 269.410034 C 5.447337 267.294006 5.007109 265.406555 4.469079 263.360107 C 4.361485 261.989197 4.292999 260.618225 4.263623 259.237366 C 4.234306 258.422791 4.214722 257.598267 4.185405 256.753784 C 4.156029 255.859741 4.126711 254.965637 4.097336 254.041809 C 3.7158 243.422058 2.718018 232.891785 1.553888 222.331665 C -0.852649 199.820618 -0.852649 199.820618 4.351692 188.853271 C 4.968 187.462463 4.968 187.462463 5.603892 186.04187 C 7.149497 182.654297 8.734271 179.296509 10.338629 175.938721 C 10.680996 175.223511 11.023422 174.508179 11.375581 173.763123 C 12.520126 171.378967 13.664732 168.984741 14.809278 166.600525 C 15.200544 165.78595 15.58208 164.971375 15.992991 164.136841 C 17.949509 160.043945 19.92555 155.95105 21.921175 151.877991 C 22.488583 150.725586 22.488583 150.725586 23.055988 149.543457 C 23.760305 148.093018 24.464684 146.652588 25.178793 145.212097 C 26.841845 141.78479 28.250538 138.407104 29.385292 134.761292 C 30.882055 130.04248 32.907059 125.701233 35.098347 121.280518 C 35.499409 120.455994 35.890736 119.631409 36.301586 118.786987 C 37.573368 116.184204 38.845093 113.59137 40.116817 110.988647 C 46.876556 97.408447 46.876556 97.408447 52.384155 83.272034 C 54.418953 77.778381 57.128746 72.572876 59.69178 67.327637 C 65.248276 55.982727 70.511314 44.578186 75.334122 32.885559 C 78.542778 25.117065 81.819977 17.447693 85.664528 9.977173 C 86.173241 8.963928 86.173241 8.963928 86.701477 7.930786 C 89.616669 2.45697 91.993828 -0.612671 98.381889 0.102539 Z"/>
    <path id="path2" fill="#f5f6f8" stroke="none" d="M 52.288452 398.72583 C 53.138428 398.71582 53.988464 398.705872 54.858459 398.695862 C 55.788452 398.695862 56.708435 398.695862 57.658447 398.695862 C 59.128479 398.685852 59.128479 398.685852 60.628479 398.665833 C 63.868469 398.645874 67.108459 398.635864 70.34845 398.625854 C 72.58844 398.615845 74.83844 398.605835 77.08844 398.605835 C 81.808472 398.585815 86.518433 398.575867 91.238464 398.575867 C 97.278442 398.565857 103.32843 398.535828 109.368469 398.48584 C 114.018433 398.455872 118.658447 398.445862 123.308472 398.445862 C 125.538452 398.445862 127.768433 398.435852 129.998474 398.405823 C 133.108459 398.385864 136.218445 398.385864 139.33844 398.395874 C 140.258423 398.385864 141.188477 398.375854 142.138428 398.355835 C 148.368469 398.425842 148.368469 398.425842 151.57843 401.345825 C 153.368469 404.685852 153.438477 406.845825 153.308472 410.625854 C 153.278442 411.935852 153.238464 413.24585 153.198486 414.595825 C 153.138428 416.065857 153.068481 417.535828 152.998474 418.99585 C 152.948486 420.21582 152.948486 420.21582 152.898438 421.455872 C 152.288452 436.365845 152.288452 436.365845 151.498474 440.815857 C 150.718445 445.825867 150.668457 450.865845 150.498474 455.935852 C 150.428467 458.055847 150.358459 460.165833 150.278442 462.275818 C 150.248474 463.205872 150.218445 464.135864 150.188477 465.095825 C 149.968445 468.435852 149.478455 471.695862 148.998474 474.99585 C 148.798462 477.405823 148.618469 479.825867 148.458435 482.23584 C 148.358459 483.72583 148.258423 485.22583 148.148438 486.72583 C 148.068481 487.935852 148.068481 487.935852 147.988464 489.175842 C 146.59845 509.755859 144.968445 530.315857 143.308472 550.875854 C 143.188477 552.425842 143.058472 553.98584 142.938477 555.535828 C 142.188477 564.825867 141.448486 574.105835 140.698486 583.385864 C 139.288452 600.755859 137.898438 618.135864 136.498474 635.515869 C 135.968445 642.185852 135.428467 648.855835 134.888428 655.525818 C 134.548462 659.72583 134.208435 663.925842 133.878418 668.125854 C 133.718445 670.075867 133.558472 672.015869 133.408447 673.96582 C 133.188477 676.665833 132.968445 679.375854 132.748474 682.075867 C 132.688477 682.925842 132.618469 683.765869 132.548462 684.635864 C 132.218445 688.74585 131.948486 692.845825 131.778442 696.96582 C 131.748474 697.755859 131.718445 698.535828 131.678467 699.345825 C 131.618469 700.815857 131.568481 702.285828 131.538452 703.755859 C 131.418457 706.49585 131.268433 708.565857 129.82843 710.935852 C 127.228455 712.455872 125.218445 712.385864 122.218445 712.405823 C 121.028442 712.415833 119.83844 712.425842 118.618469 712.445862 C 117.32843 712.435852 116.048462 712.435852 114.718445 712.435852 C 113.408447 712.435852 112.08844 712.445862 110.728455 712.445862 C 107.938477 712.455872 105.148438 712.455872 102.358459 712.445862 C 98.788452 712.435852 95.218445 712.455872 91.638428 712.48584 C 88.228455 712.505859 84.818481 712.49585 81.408447 712.49585 C 80.128479 712.505859 78.84845 712.515869 77.528442 712.525818 C 76.32843 712.515869 75.138428 712.515869 73.918457 712.505859 C 72.868469 712.505859 71.818481 712.505859 70.738464 712.505859 C 67.218445 711.855835 66.08844 710.885864 63.998474 707.99585 C 63.318481 705.265869 63.318481 705.265869 63.058472 702.065857 C 62.898438 700.255859 62.898438 700.255859 62.738464 698.405823 C 62.638428 697.075867 62.538452 695.74585 62.438477 694.415833 C 62.318481 693.015869 62.198425 691.625854 62.08844 690.23584 C 61.768433 686.47583 61.468445 682.72583 61.178467 678.96582 C 60.878479 675.055847 60.548462 671.145874 60.228455 667.22583 C 59.518433 658.565857 58.83844 649.885864 58.168457 641.21582 C 57.898438 637.755859 57.628479 634.285828 57.358459 630.815857 C 56.788452 623.585815 56.228455 616.355835 55.688477 609.125854 C 55.608459 608.055847 55.528442 606.98584 55.438477 605.875854 C 54.658447 595.395874 53.968445 584.935852 53.57843 574.425842 C 52.988464 559.185852 51.678467 543.97583 50.458435 528.775879 C 49.968445 522.635864 49.488464 516.48584 49.008423 510.345825 C 48.918457 509.255859 48.83844 508.165833 48.748474 507.045837 C 48.038452 497.97583 47.32843 488.915833 46.628479 479.845825 C 46.168457 474.015869 45.718445 468.175842 45.248474 462.345825 C 44.798462 456.575867 44.34845 450.805847 43.898438 445.035828 C 43.728455 442.875854 43.558472 440.71582 43.388428 438.545837 C 40.768433 405.605835 40.768433 405.605835 43.998474 400.99585 C 46.84845 399.275818 48.978455 398.74585 52.288452 398.72583 Z"/>
    <path id="path3" fill="#f5f6f8" stroke="none" d="M 101 61 C 102.51001 62.609985 102.51001 62.609985 103.789978 64.969971 C 104.549988 66.349976 104.549988 66.349976 105.320007 67.75 C 106.150024 69.359985 106.150024 69.359985 107 71 C 107.309998 71.599976 107.619995 72.189941 107.950012 72.800049 C 110.099976 76.930054 112.200012 81.069946 114.280029 85.23999 C 115.359985 87.410034 116.450012 89.569946 117.549988 91.72998 C 121.289978 99.180054 124.76001 106.670044 127.929993 114.380005 C 132.030029 124.330017 136.799988 133.869995 141.690002 143.440002 C 151.099976 161.890015 151.099976 161.890015 154.859985 171.26001 C 156.880005 176.109985 159.299988 180.76001 161.690002 185.440002 C 162.650024 187.330017 163.609985 189.22998 164.570007 191.119995 C 165.200012 192.349976 165.200012 192.349976 165.839966 193.599976 C 166.219971 194.390015 166.609985 195.190002 167 196 C 167.380005 196.719971 167.76001 197.440002 168.150024 198.179993 C 170.630005 206.410034 168.690002 216.22998 168.01001 224.640015 C 167.900024 225.98999 167.789978 227.330017 167.690002 228.679993 C 167.400024 232.299988 167.109985 235.929993 166.809998 239.549988 C 166.5 243.359985 166.200012 247.169983 165.900024 250.97998 C 165.390015 257.380005 164.869995 263.77002 164.359985 270.169983 C 163.690002 278.349976 163.039978 286.530029 162.380005 294.719971 C 161.820007 301.789978 161.25 308.849976 160.690002 315.919983 C 160.559998 317.429993 160.440002 318.940002 160.320007 320.450012 C 159.97998 324.76001 159.630005 329.059998 159.280029 333.369995 C 159.130005 335.280029 158.97998 337.200012 158.820007 339.109985 C 158.640015 341.380005 158.450012 343.640015 158.26001 345.910034 C 158.090027 347.940002 157.929993 349.969971 157.780029 352 C 157.700012 352.900024 157.630005 353.799988 157.549988 354.72998 C 157.469971 355.900024 157.469971 355.900024 157.369995 357.099976 C 157 359 157 359 155 361 C 149.419983 362.140015 143.909973 362.140015 138.22998 362.130005 C 137.27002 362.130005 136.320007 362.130005 135.330017 362.130005 C 132.190002 362.140015 129.049988 362.140015 125.909973 362.130005 C 123.710022 362.130005 121.52002 362.130005 119.330017 362.140015 C 114.73999 362.140015 110.150024 362.140015 105.559998 362.130005 C 99.679993 362.119995 93.809998 362.130005 87.940002 362.130005 C 83.409973 362.140015 78.880005 362.140015 74.359985 362.130005 C 72.190002 362.130005 70.030029 362.130005 67.859985 362.140015 C 64.830017 362.140015 61.799988 362.130005 58.77002 362.130005 C 57.880005 362.130005 56.98999 362.130005 56.080017 362.140015 C 43.580017 362.089966 43.580017 362.089966 39.140015 359.02002 C 36.23999 354.920044 36.030029 351.630005 35.72998 346.700012 C 35.650024 345.77002 35.580017 344.839966 35.5 343.880005 C 35.26001 340.790039 35.039978 337.700012 34.830017 334.609985 C 34.669983 332.420044 34.5 330.23999 34.330017 328.049988 C 33.890015 322.27002 33.469971 316.48999 33.059998 310.700012 C 32.73999 306.109985 32.390015 301.51001 32.030029 296.919983 C 30.25 273.48999 28.660034 250.049988 27.599976 226.570007 C 27.570007 225.809998 27.539978 225.049988 27.5 224.27002 C 27.440002 222.820007 27.369995 221.369995 27.309998 219.919983 C 27.070007 214.72998 26.630005 209.580017 26.049988 204.419983 C 25.960022 199.97998 27.900024 196.799988 30 193 C 30.97998 191.080017 31.929993 189.150024 32.890015 187.22998 C 34 185.01001 35.119995 182.789978 36.23999 180.580017 C 42.539978 168.160034 48.719971 155.77002 54.080017 142.910034 C 58.75 131.910034 64.25 121.320007 69.669983 110.680054 C 73.330017 103.469971 76.820007 96.300049 79.840027 88.790039 C 81.869995 83.900024 84.210022 79.170044 86.559998 74.439941 C 87.030029 73.469971 87.5 72.5 87.97998 71.5 C 88.440002 70.569946 88.900024 69.640015 89.380005 68.680054 C 89.98999 67.439941 89.98999 67.439941 90.619995 66.170044 C 93.26001 62.030029 96.01001 60.099976 101 61 Z"/>
    <path id="path4" fill="#f5f6f8" stroke="none" d="M 113.322838 845.817871 C 118.031693 849.593872 120.430176 854.066101 122.705246 859.618469 C 123.190224 860.680786 123.190224 860.680786 123.684036 861.760864 C 126.3647 869.660889 124.618744 878.203796 121.417793 885.639648 C 117.061676 893.807495 109.98082 896.940796 101.541954 899.78833 C 90.969131 900.716736 82.424454 898.690369 74.214859 891.745422 C 68.474312 885.978821 65.176376 879.355347 65 871.115967 C 65.158722 862.617859 68.200951 854.940918 74.003181 848.74585 C 86.383743 838.52478 99.804771 836.891235 113.322838 845.817871 Z"/>
</svg>
