<?xml version="1.0" encoding="UTF-8"?>
<!-- Generated by Pixelmator Pro 3.5.3 -->
<svg width="69" height="1060" viewBox="0 0 69 1060" xmlns="http://www.w3.org/2000/svg">
    <path id="secondHand" fill="#909497" stroke="none" d="M 40 0 C 41.569946 1.569946 41.130005 3.130005 41.140015 5.319946 C 41.140015 6.26001 41.150024 7.199951 41.150024 8.170044 C 41.150024 9.209961 41.150024 10.26001 41.150024 11.329956 C 41.160034 12.430054 41.160034 13.540039 41.160034 14.670044 C 41.180054 18.400024 41.180054 22.130005 41.189941 25.859985 C 41.199951 28.530029 41.209961 31.199951 41.209961 33.869995 C 41.22998 39.660034 41.25 45.449951 41.26001 51.23999 C 41.280029 59.77002 41.300049 68.300049 41.329956 76.829956 C 41.369995 90.859985 41.410034 104.900024 41.449951 118.939941 C 41.449951 119.780029 41.449951 120.619995 41.449951 121.48999 C 41.459961 124.890015 41.469971 128.280029 41.47998 131.679932 C 41.550049 157.660034 41.619995 183.650024 41.699951 209.630005 C 41.709961 214.540039 41.72998 219.449951 41.73999 224.349976 C 41.839966 259.589966 41.969971 294.829956 42.26001 330.070007 C 42.27002 331.5 42.290039 332.929993 42.300049 334.359985 C 42.349976 340.790039 42.400024 347.209961 42.459961 353.640015 C 42.47998 356.48999 42.51001 359.339966 42.530029 362.200012 C 42.540039 363.630005 42.550049 365.049988 42.560059 366.47998 C 42.949951 412.820007 43.02002 459.150024 42.900024 505.48999 C 42.869995 518.340027 42.839966 531.200012 42.829956 544.049988 C 42.829956 544.960022 42.829956 545.859985 42.829956 546.799988 C 42.819946 555.030029 42.810059 563.27002 42.800049 571.51001 C 42.800049 577.02002 42.790039 582.530029 42.790039 588.039978 C 42.790039 588.950012 42.790039 589.869995 42.790039 590.809998 C 42.77002 605.929993 42.709961 621.049988 42.630005 636.179993 C 42.560059 652 42.530029 667.830017 42.550049 683.659973 C 42.560059 693.289978 42.530029 702.919983 42.449951 712.539978 C 42.400024 719.049988 42.400024 725.549988 42.430054 732.049988 C 42.449951 735.789978 42.449951 739.52002 42.390015 743.26001 C 41.400024 757.169983 41.400024 757.169983 45.280029 769.919983 C 48.719971 773.179993 52.579956 774.409973 57 776 C 63.819946 782.289978 67.439941 790.539978 68.380005 799.679993 C 68.689941 809.75 67.199951 817.359985 60.810059 825.25 C 56.130005 830.22998 50.72998 834.450012 44 836 C 43.969971 841.880005 43.959961 847.76001 43.949951 853.650024 C 43.939941 855.640015 43.930054 857.630005 43.920044 859.619995 C 43.880005 870.48999 43.98999 881.309998 44.579956 892.159973 C 45.030029 900.869995 45.25 909.580017 45.469971 918.289978 C 45.800049 931.51001 46.219971 944.719971 46.719971 957.929993 C 46.75 958.76001 46.780029 959.599976 46.810059 960.460022 C 47.069946 967.26001 47.329956 974.059998 47.599976 980.859985 C 47.829956 986.799988 48.060059 992.73999 48.280029 998.679932 C 48.310059 999.5 48.339966 1000.330078 48.380005 1001.179932 C 49.099976 1020.449951 49.569946 1039.719971 50 1059 C 43.089966 1059.030029 43.089966 1059.030029 41.02002 1059.040039 C 38.180054 1059.050049 35.349976 1059.060059 32.51001 1059.079956 C 30.589966 1059.089966 28.680054 1059.089966 26.76001 1059.099976 C 25.51001 1059.099976 24.27002 1059.109985 22.97998 1059.109985 C 20 1059 20 1059 18 1058 C 17.969971 1053.349976 17.960022 1048.689941 17.950012 1044.040039 C 17.940002 1042.459961 17.929993 1040.890015 17.919983 1039.310059 C 17.909973 1037.01001 17.909973 1034.709961 17.900024 1032.410034 C 17.890015 1031.410034 17.890015 1031.410034 17.890015 1030.380005 C 17.890015 1024.280029 18.25 1018.209961 18.599976 1012.130005 C 19.030029 1004.75 19.320007 997.369995 19.570007 989.97998 C 19.650024 987.590027 19.73999 985.200012 19.820007 982.809998 C 19.940002 979.369995 20.069946 975.919983 20.189941 972.469971 C 21 949.340027 21.829956 926.210022 22.859985 903.080017 C 22.900024 902.299988 22.930054 901.52002 22.969971 900.719971 C 23.300049 893.340027 23.640015 885.950012 23.98999 878.570007 C 24.359985 870.719971 24.699951 862.859985 25 855 C 25.060059 853.590027 25.060059 853.590027 25.119995 852.150024 C 25.209961 849.719971 25.280029 847.299988 25.329956 844.880005 C 25.369995 843.619995 25.400024 842.359985 25.439941 841.059998 C 24.910034 837.359985 23.890015 836.27002 21 834 C 19.590027 833.030029 18.150024 832.090027 16.690002 831.190002 C 7.869995 825.349976 2.940002 819.359985 0 809 C -1.549988 799.150024 1.429993 790.179993 7.190002 782.190002 C 11.27002 777.27002 16.47998 773.159973 22.599976 771.150024 C 25.52002 768.539978 25.400024 767.789978 25.630005 763.98999 C 25.660034 761.789978 25.660034 759.580017 25.640015 757.380005 C 25.650024 756.169983 25.660034 754.960022 25.670044 753.710022 C 25.689941 750.369995 25.689941 747.02002 25.680054 743.679993 C 25.670044 740.109985 25.689941 736.549988 25.709961 732.97998 C 25.73999 726.859985 25.75 720.73999 25.75 714.619995 C 25.75 704.919983 25.780029 695.219971 25.819946 685.51001 C 25.829956 682.25 25.839966 679 25.859985 675.73999 C 25.859985 674.929993 25.859985 674.130005 25.859985 673.299988 C 25.890015 667.590027 25.900024 661.890015 25.920044 656.190002 C 25.959961 638.669983 26.030029 621.159973 26.22998 603.650024 C 26.25 602.710022 26.26001 601.77002 26.27002 600.799988 C 26.319946 596.159973 26.380005 591.52002 26.430054 586.880005 C 27.02002 538.650024 27.25 490.410034 27.52002 442.160034 C 27.76001 397.130005 28.02002 352.089966 28.530029 307.059998 C 28.949951 270.469971 29.189941 233.880005 29.410034 197.290039 C 29.47998 185.119995 29.550049 172.959961 29.630005 160.790039 C 29.630005 159.949951 29.640015 159.099976 29.650024 158.22998 C 29.699951 149.810059 29.75 141.390015 29.810059 132.969971 C 29.829956 128.869995 29.859985 124.780029 29.880005 120.689941 C 29.890015 119.48999 29.890015 119.48999 29.900024 118.27002 C 29.969971 107.26001 30.030029 96.25 30.089966 85.23999 C 30.150024 74.300049 30.219971 63.369995 30.300049 52.430054 C 30.349976 47.099976 30.380005 41.77002 30.400024 36.439941 C 30.420044 31.619995 30.459961 26.800049 30.5 21.97998 C 30.52002 20.26001 30.52002 18.540039 30.530029 16.810059 C 30.530029 14.51001 30.560059 12.209961 30.579956 9.910034 C 30.589966 8.630005 30.599976 7.359985 30.609985 6.050049 C 31 3 31 3 32.329956 1.079956 C 34.869995 -0.569946 37.050049 -0.26001 40 0 Z"/>
</svg>
