<svg id="vector" xmlns="http://www.w3.org/2000/svg" width="15" height="163" viewBox="0 0 15 163"><path fill="#a6acad" d="M8.64,158.28A2.44,2.44 0,1 1,11.03 155.76a2.4,2.4 0,0 1,-2.39 2.48Z" id="path_0"/><path fill="#a6acad" d="M6.76,157.44a2.43,2.43 0,1 1,3.43 0.24,2.45 2.45,0 0,1 -3.43,-0.24Z" id="path_1"/><path fill="#0690b0" d="M10.91,148.95 L10.8,141.76l4.28,-9.16L13.74,53.5l-4.69,-11L6.98,0l-1,0 -1,0 -0.63,42.53L0,53.76l1.34,79.1 4.59,9 0.11,7.23a7.29,7.29 0,1 0,4.88 -0.09Z" id="path_2"/><path fill="#f2f2f2" d="M6.68,43.3l3.46,10.94l1.32,77.94l-1.03,2.64l-2.19,0.04l-2.18,0.04l-1.11,-2.61l-1.34,-77.93l3.07,-11.06z" stroke-width="0.54" stroke="#a4a5ab" id="path_3"/><path fill="#a6acad" d="M6.76,157.44a2.43,2.43 0,1 1,3.43 0.24A2.45,2.45 0,0 1,6.76 157.44Z" id="path_4"/><path fill="#242424" d="M9.3,154.57a1.46,1.46 0,1 1,-2 0.57A1.48,1.48 0,0 1,9.3 154.57Z" id="path_5"/></svg>