<?xml version="1.0" encoding="UTF-8"?>
<!-- Generated by Pixelmator Pro 3.5.3 -->
<svg width="9" height="166" viewBox="0 0 9 166" xmlns="http://www.w3.org/2000/svg">
    <path id="path0" fill="#f18e21" stroke="none" d="M 5.966599 133.234314 C 7.677193 132.704361 8.860366 131.14389 8.908907 129.353745 C 8.90722 127.585228 7.725964 126.035065 6.021255 125.56427 L 6.09413 -0.053131 L 5.392713 -0.053131 L 3.57085 125.600708 C 1.851643 126.127731 0.660356 127.692909 0.610324 129.490387 C 0.608736 131.255051 1.787341 132.802917 3.488866 133.270752 L 3.616397 133.270752 L 3.470648 152.063263 C 3.470648 152.063263 3.379555 155.706985 1.384615 157.629059 C 0.530991 158.446045 0.041853 159.572037 0.027328 160.75354 C 0.031508 161.920471 0.50882 163.035782 1.350111 163.844452 C 2.191402 164.653122 3.324718 165.085983 4.490891 165.044037 C 6.960828 165.044861 8.981328 163.076889 9.045547 160.607788 C 9.05055 159.444717 8.576055 158.330963 7.733806 157.528854 L 7.733806 157.528854 C 5.766194 155.634109 5.738867 152.063263 5.738867 152.063263 L 5.738867 152.063263 L 5.884615 133.270752 L 6.012146 133.270752 Z"/>
</svg>
